<svg width="205" height="74" viewBox="0 0 205 74" fill="none" xmlns="http://www.w3.org/2000/svg">
<path d="M32.2596 0.943359H172.65C189.997 0.943359 204.036 17.119 204.036 37.1068C204.036 57.0946 189.997 73.2703 172.65 73.2703H32.2596C14.912 73.2703 0.873047 57.0946 0.873047 37.1068C0.873047 17.119 14.912 0.943359 32.2596 0.943359Z" stroke="white"/>
<path d="M74.5996 19.9014V28.2983H76.7904C77.9529 28.2983 78.8471 27.8862 79.5624 27.1135C80.2778 26.3407 80.5908 25.3104 80.5908 24.0741C80.5908 22.8377 80.2331 21.8074 79.5624 21.0347C78.8918 20.262 77.9529 19.9014 76.7904 19.9014H74.5996ZM76.7904 21.1377C77.5952 21.1377 78.2658 21.3953 78.7129 21.962C79.2048 22.4771 79.4283 23.1983 79.4283 24.1256C79.4283 25.0013 79.2048 25.7226 78.7129 26.2892C78.2211 26.8559 77.5952 27.1135 76.7904 27.1135H75.7174V21.1377H76.7904Z" fill="white"/>
<path d="M84.3013 21.9111C83.5413 21.9111 82.8706 22.2202 82.3341 22.8384C81.7976 23.4566 81.5293 24.2293 81.5293 25.1566C81.5293 26.0838 81.7976 26.8566 82.3341 27.4747C82.8706 28.0929 83.4965 28.402 84.3013 28.4535C85.0614 28.4535 85.7321 28.1444 86.2686 27.5263C86.8051 26.9081 87.0734 26.1354 87.0734 25.2081C87.0734 24.2808 86.8051 23.5081 86.2686 22.8899C85.6873 22.2202 85.0614 21.9111 84.3013 21.9111ZM84.3013 23.1475C84.7484 23.1475 85.1508 23.3536 85.4638 23.7657C85.7768 24.1263 85.9109 24.6414 85.9109 25.2081C85.9109 25.7748 85.7321 26.2899 85.4638 26.6505C85.1508 27.0111 84.7484 27.2172 84.3013 27.2172C83.8542 27.2172 83.4518 27.0111 83.1389 26.6505C82.8259 26.2384 82.6918 25.7748 82.6918 25.2081C82.6918 24.6414 82.8259 24.1263 83.1389 23.7657C83.4518 23.3536 83.8542 23.1475 84.3013 23.1475Z" fill="white"/>
<path d="M93.6466 26.0838L92.037 21.9111H91.6346L90.0697 26.1354L88.6837 22.0657H87.4766L89.8015 28.4535H90.2039L91.8582 24.2808L93.5124 28.4535H93.9148L96.195 22.0657H94.9879L93.6466 26.0838Z" fill="white"/>
<path d="M99.7709 21.9111C99.145 21.9111 98.6085 22.1687 98.2061 22.6839V22.0657H97.1777V28.299H98.2955V24.5899C98.2955 23.7142 98.7873 23.1475 99.5027 23.1475C100.173 23.1475 100.62 23.7142 100.62 24.5899V28.299H101.738V24.3839C101.738 22.8899 100.978 21.9111 99.7709 21.9111Z" fill="white"/>
<path d="M103.258 18.7676V28.2978H104.376V18.7676H103.258Z" fill="white"/>
<path d="M108.399 21.9111C107.639 21.9111 106.968 22.2202 106.432 22.8384C105.895 23.4566 105.627 24.2293 105.627 25.1566C105.627 26.0838 105.895 26.8566 106.432 27.4747C106.968 28.0929 107.594 28.402 108.399 28.4535C109.159 28.4535 109.83 28.1444 110.366 27.5263C110.903 26.9081 111.171 26.1354 111.171 25.2081C111.171 24.2808 110.903 23.5081 110.366 22.8899C109.83 22.2202 109.159 21.9111 108.399 21.9111ZM108.444 23.1475C108.891 23.1475 109.293 23.3536 109.606 23.7657C109.919 24.1263 110.053 24.6414 110.053 25.2081C110.053 25.7748 109.874 26.2899 109.606 26.6505C109.293 27.0111 108.891 27.2172 108.444 27.2172C107.997 27.2172 107.594 27.0111 107.281 26.6505C106.968 26.2384 106.834 25.7748 106.834 25.2081C106.834 24.6414 106.968 24.1263 107.281 23.7657C107.549 23.3536 107.952 23.1475 108.444 23.1475Z" fill="white"/>
<path d="M114.481 21.9111C113.542 21.9111 112.826 22.3748 112.29 23.2505L112.916 24.0232C113.363 23.4051 113.855 23.096 114.347 23.096C115.062 23.096 115.464 23.5596 115.464 24.4354V24.8475H113.989C112.826 24.8475 112.066 25.5687 112.066 26.6505C112.066 27.7323 112.782 28.4535 113.9 28.4535C114.615 28.4535 115.151 28.196 115.554 27.6293V28.3505H116.582V24.5899C116.582 22.8384 115.733 21.9111 114.481 21.9111ZM114.123 27.4232C113.587 27.4232 113.229 27.1141 113.229 26.599C113.229 26.0838 113.542 25.8263 114.168 25.8263H115.509V25.9293C115.464 26.8051 114.883 27.4232 114.123 27.4232Z" fill="white"/>
<path d="M122.081 22.838C121.679 22.2198 121.098 21.9107 120.338 21.9107C119.622 21.9107 118.996 22.2198 118.504 22.838C118.013 23.4562 117.789 24.2289 117.789 25.1562C117.789 26.0834 118.013 26.8562 118.504 27.4743C118.996 28.0925 119.577 28.4016 120.338 28.4016C121.142 28.4016 121.768 28.041 122.171 27.3713V28.2471H123.199V18.7168H122.081V22.838ZM120.561 27.2168C120.114 27.2168 119.712 27.0107 119.399 26.6501C119.086 26.2895 118.952 25.7743 118.952 25.1562C118.952 24.538 119.086 24.0743 119.399 23.7137C119.712 23.3531 120.069 23.1471 120.561 23.1471C120.963 23.1471 121.366 23.3016 121.679 23.6622C121.992 24.0228 122.126 24.538 122.126 25.1562C122.126 26.5471 121.411 27.2168 120.561 27.2168Z" fill="white"/>
<path d="M130.219 21.9111C129.459 21.9111 128.789 22.2202 128.252 22.8384C127.716 23.4566 127.447 24.2293 127.447 25.1566C127.447 26.0838 127.716 26.8566 128.252 27.4747C128.789 28.0929 129.415 28.402 130.219 28.4535C130.979 28.4535 131.65 28.1444 132.187 27.5263C132.723 26.9081 132.991 26.1354 132.991 25.2081C132.991 24.2808 132.723 23.5081 132.187 22.8899C131.605 22.2202 130.979 21.9111 130.219 21.9111ZM130.219 23.1475C130.666 23.1475 131.069 23.3536 131.382 23.7657C131.695 24.1263 131.829 24.6414 131.829 25.2081C131.829 25.7748 131.65 26.2899 131.382 26.6505C131.069 27.0111 130.666 27.2172 130.219 27.2172C129.772 27.2172 129.37 27.0111 129.057 26.6505C128.744 26.2384 128.61 25.7748 128.61 25.2081C128.61 24.6414 128.744 24.1263 129.057 23.7657C129.37 23.3536 129.772 23.1475 130.219 23.1475Z" fill="white"/>
<path d="M136.835 21.9111C136.209 21.9111 135.673 22.1687 135.271 22.6839V22.0657H134.242V28.299H135.36V24.5899C135.36 23.7142 135.852 23.1475 136.567 23.1475C137.238 23.1475 137.685 23.7142 137.685 24.5899V28.299H138.803V24.3839C138.803 22.8899 138.087 21.9111 136.835 21.9111Z" fill="white"/>
<path d="M145.734 27.216C145.063 27.216 144.706 26.9584 144.706 26.1342V23.1978H146.27V22.0645H144.706V20.416H143.588V22.0645H142.738V23.1978H143.588V26.2372C143.588 27.6796 144.303 28.4008 145.51 28.4008C145.779 28.4008 146.092 28.3493 146.449 28.2463V27.113C146.092 27.216 145.868 27.216 145.734 27.216Z" fill="white"/>
<path d="M150.159 21.91C149.533 21.91 149.042 22.1676 148.639 22.6827V18.7676H147.521V28.2978H148.639V24.5888C148.639 23.713 149.131 23.1463 149.846 23.1463C150.517 23.1463 150.964 23.713 150.964 24.5888V28.2978H152.082V24.3827C152.082 22.9403 151.367 21.91 150.159 21.91Z" fill="white"/>
<path d="M158.431 24.796C158.431 23.9717 158.208 23.302 157.76 22.7354C157.313 22.1687 156.732 21.9111 156.062 21.9111C155.301 21.9111 154.676 22.2202 154.139 22.8899C153.602 23.5081 153.379 24.2808 153.379 25.2081C153.379 26.1354 153.647 26.9081 154.184 27.5263C154.72 28.1444 155.391 28.4535 156.196 28.4535C157 28.4535 157.671 28.1444 158.252 27.4232L157.716 26.496C157.269 27.0111 156.732 27.2172 156.196 27.2172C155.301 27.2172 154.631 26.599 154.497 25.5687H158.386C158.386 25.3111 158.431 25.0535 158.431 24.796ZM155.972 23.0445C156.732 23.0445 157.313 23.6626 157.313 24.5899H154.497C154.631 23.6626 155.212 23.0445 155.972 23.0445Z" fill="white"/>
<path d="M86.3578 50.7077L80.5455 34.6865H79.8301L74.0625 50.7077H76.298L77.2369 48.0804H83.1387L84.0776 50.7077H86.3578ZM77.997 45.9168L80.1878 39.3744L82.3339 45.9168H77.997Z" fill="white"/>
<path d="M93.2441 38.7041C91.8134 38.7041 90.5615 39.4253 89.8462 40.6617V39.0132H87.8789V55.0343H89.9803V49.3162C90.7404 50.4495 91.8581 50.9647 93.2441 50.9647C94.6301 50.9647 95.7926 50.398 96.6868 49.2131C97.581 48.0283 98.0281 46.5859 98.0281 44.8344C98.0281 43.0829 97.581 41.6405 96.6868 40.4556C95.7926 39.2708 94.6301 38.7041 93.2441 38.7041ZM92.8864 48.6465C92.0817 48.6465 91.3663 48.3374 90.7851 47.6677C90.2038 46.998 89.9356 46.0707 89.9356 44.7829C89.9356 42.2586 91.2769 40.9708 92.8864 40.9708C93.7359 40.9708 94.4513 41.3314 95.0325 42.0526C95.6138 42.7738 95.882 43.701 95.882 44.8344C95.882 45.9677 95.6138 46.8435 95.0325 47.5647C94.4513 48.2859 93.7359 48.6465 92.8864 48.6465Z" fill="white"/>
<path d="M105.359 38.7041C103.929 38.7041 102.677 39.4253 101.961 40.6617V39.0132H99.9941V55.0343H102.096V49.3162C102.856 50.4495 103.973 50.9647 105.359 50.9647C106.745 50.9647 107.908 50.398 108.802 49.2131C109.696 48.0283 110.143 46.5859 110.143 44.8344C110.143 43.0829 109.696 41.6405 108.802 40.4556C107.908 39.2708 106.745 38.7041 105.359 38.7041ZM105.046 48.6465C104.242 48.6465 103.526 48.3374 102.945 47.6677C102.364 46.998 102.096 46.0707 102.096 44.7829C102.096 42.2586 103.437 40.9708 105.046 40.9708C105.896 40.9708 106.611 41.3314 107.192 42.0526C107.774 42.7738 108.042 43.701 108.042 44.8344C108.042 45.9677 107.774 46.8435 107.192 47.5647C106.567 48.2859 105.896 48.6465 105.046 48.6465Z" fill="white"/>
<path d="M121.455 34.6865C120.293 34.6865 119.309 35.0986 118.504 35.8714C117.699 36.6441 117.297 37.6744 117.297 38.9623C117.297 40.9713 118.415 42.2592 120.337 43.341L121.768 44.1653C123.154 44.938 123.691 45.4016 123.691 46.535C123.691 47.8743 122.796 48.7501 121.41 48.7501C120.024 48.7501 118.951 47.9259 117.968 46.2259L116.492 47.5653C117.521 49.6774 119.309 50.9652 121.455 50.9652C122.707 50.9652 123.78 50.5531 124.585 49.7289C125.434 48.9046 125.837 47.7713 125.837 46.4319C125.837 44.3713 124.808 43.135 122.707 41.9501L121.231 41.1259C119.89 40.3532 119.398 39.941 119.398 38.8592C119.398 37.6229 120.293 36.9532 121.366 36.9532C122.439 36.9532 123.422 37.6229 124.138 38.8592L125.613 37.5198C124.853 35.8199 123.288 34.6865 121.455 34.6865Z" fill="white"/>
<path d="M132.454 48.6993C131.202 48.6993 130.531 48.1841 130.531 46.6902V41.1266H133.437V38.963H130.531V35.8721H128.43V38.963H126.82V41.1266H128.43V46.8447C128.43 49.575 129.771 50.9144 132.007 50.9144C132.499 50.9144 133.08 50.8114 133.75 50.6569V48.5447C133.169 48.6478 132.767 48.6993 132.454 48.6993Z" fill="white"/>
<path d="M139.786 38.7041C138.355 38.7041 137.104 39.3223 136.12 40.4556C135.136 41.6405 134.645 43.0829 134.645 44.7829C134.645 46.4829 135.136 47.9768 136.12 49.1101C137.104 50.295 138.311 50.8616 139.786 50.9131C141.217 50.9131 142.424 50.295 143.452 49.1616C144.481 47.9768 144.973 46.5344 144.973 44.7829C144.973 43.0314 144.436 41.5889 143.452 40.4556C142.469 39.3223 141.217 38.7041 139.786 38.7041ZM139.831 41.0223C140.68 41.0223 141.396 41.3829 141.977 42.1556C142.558 42.8768 142.871 43.7526 142.871 44.8859C142.871 46.0192 142.558 46.8435 141.977 47.6162C141.396 48.3374 140.68 48.698 139.831 48.698C138.937 48.698 138.221 48.3374 137.685 47.6162C137.104 46.895 136.835 45.9677 136.835 44.8859C136.835 43.8041 137.104 42.8768 137.685 42.1556C138.221 41.3829 138.937 41.0223 139.831 41.0223Z" fill="white"/>
<path d="M151.768 38.8584C150.561 38.8584 149.622 39.4251 148.907 40.5069V38.9614H146.939V50.6553H149.041V44.422C149.041 42.3614 150.248 41.1766 151.902 41.1766H152.528V38.9614C152.349 38.9099 152.081 38.8584 151.768 38.8584Z" fill="white"/>
<path d="M162.812 44.0614C162.812 42.516 162.365 41.2281 161.516 40.1978C160.666 39.1675 159.593 38.6523 158.297 38.6523C156.866 38.6523 155.659 39.2705 154.72 40.4554C153.736 41.6402 153.289 43.0826 153.289 44.7826C153.289 46.4826 153.781 47.9765 154.765 49.1614C155.748 50.3462 157 50.9129 158.52 50.9129C160.04 50.9129 161.292 50.2947 162.41 49.0068L161.426 47.3069C160.532 48.2341 159.593 48.6978 158.565 48.6978C156.866 48.6978 155.659 47.5644 155.39 45.6069H162.678C162.723 45.0917 162.812 44.5766 162.812 44.0614ZM158.207 40.816C159.638 40.816 160.711 41.9493 160.711 43.7008H155.39C155.703 41.9493 156.821 40.816 158.207 40.816Z" fill="white"/>
<path d="M64.3601 36.0766C64.3153 31.5948 67.758 29.4312 67.8922 29.3282C65.9696 26.2888 62.9293 25.8767 61.901 25.8252C59.3972 25.5161 56.9382 27.4736 55.6416 27.4736C54.345 27.4736 52.333 25.8767 50.2316 25.9282C47.5043 25.9797 44.9111 27.6797 43.5251 30.3585C40.619 35.7675 42.765 43.7523 45.5818 48.1311C46.9678 50.2947 48.5774 52.6644 50.7235 52.6129C52.8248 52.5099 53.5849 51.1705 56.0887 51.1705C58.5924 51.1705 59.3078 52.6129 61.4986 52.5614C63.7341 52.5099 65.1648 50.3978 66.5061 48.2341C68.1157 45.7614 68.7417 43.3402 68.7864 43.2372C68.6969 43.1857 64.4048 41.4342 64.3601 36.0766ZM60.2467 22.9918C61.3645 21.4979 62.1245 19.4373 61.901 17.3252C60.2914 17.3767 58.2348 18.51 57.0723 20.004C56.044 21.2918 55.1051 23.4555 55.3733 25.4646C57.2064 25.6191 59.0843 24.4343 60.2467 22.9918Z" fill="white"/>
</svg>
