<svg width="65" height="71" viewBox="0 0 65 71" fill="none" xmlns="http://www.w3.org/2000/svg">
<g filter="url(#filter0_d_333_820)">
<circle cx="32.5" cy="28.5" r="28.5" fill="#D9D9D9"/>
</g>
<g clip-path="url(#clip0_333_820)">
<path d="M32.5 57C48.2401 57 61 44.2401 61 28.5C61 12.7599 48.2401 0 32.5 0C16.7599 0 4 12.7599 4 28.5C4 44.2401 16.7599 57 32.5 57Z" fill="#F0F0F0"/>
<path d="M9.8921 11.146C7.6534 14.0587 5.96534 17.4158 4.98242 21.0628H19.8089L9.8921 11.146Z" fill="#0052B4"/>
<path d="M60.0196 21.0631C59.0367 17.4163 57.3485 14.0592 55.1099 11.1465L45.1934 21.0631H60.0196Z" fill="#0052B4"/>
<path d="M4.98242 35.9343C5.96545 39.5812 7.65352 42.9383 9.89211 45.8509L19.8086 35.9343H4.98242Z" fill="#0052B4"/>
<path d="M49.8512 5.88953C46.9386 3.65083 43.5816 1.96276 39.9346 0.979736V15.8061L49.8512 5.88953Z" fill="#0052B4"/>
<path d="M15.1484 51.1047C18.0611 53.3434 21.4182 55.0314 25.0651 56.0145V41.1882L15.1484 51.1047Z" fill="#0052B4"/>
<path d="M25.065 0.979736C21.4181 1.96276 18.061 3.65083 15.1484 5.88941L25.065 15.806V0.979736Z" fill="#0052B4"/>
<path d="M39.9346 56.0145C43.5815 55.0314 46.9386 53.3434 49.8511 51.1048L39.9346 41.1882V56.0145Z" fill="#0052B4"/>
<path d="M45.1934 35.9343L55.1099 45.851C57.3485 42.9384 59.0367 39.5812 60.0196 35.9343H45.1934Z" fill="#0052B4"/>
<path d="M60.7588 24.7826H36.2176H36.2175V0.241248C35.0005 0.0828281 33.7599 0 32.5 0C31.2399 0 29.9995 0.0828281 28.7826 0.241248V24.7824V24.7825H4.24125C4.08283 25.9995 4 27.2401 4 28.5C4 29.7601 4.08283 31.0005 4.24125 32.2174H28.7824H28.7825V56.7588C29.9995 56.9172 31.2399 57 32.5 57C33.7599 57 35.0005 56.9173 36.2174 56.7588V32.2176V32.2175H60.7588C60.9172 31.0005 61 29.7601 61 28.5C61 27.2401 60.9172 25.9995 60.7588 24.7826Z" fill="#D80027"/>
<path d="M39.9346 35.9366L52.6522 48.6543C53.2372 48.0696 53.7951 47.4583 54.3275 46.8246L43.4394 35.9365H39.9346V35.9366Z" fill="#D80027"/>
<path d="M25.0654 35.9365H25.0652L12.3477 48.6541C12.9324 49.239 13.5437 49.797 14.1773 50.3294L25.0654 39.441V35.9365Z" fill="#D80027"/>
<path d="M25.0648 21.0642V21.064L12.3471 8.34619C11.7622 8.93089 11.2042 9.54219 10.6719 10.1759L21.5601 21.0641H25.0648V21.0642Z" fill="#D80027"/>
<path d="M39.9346 21.0666L52.6524 8.34874C52.0677 7.76382 51.4564 7.20584 50.8227 6.67358L39.9346 17.5618V21.0666Z" fill="#D80027"/>
</g>
<defs>
<filter id="filter0_d_333_820" x="0" y="0" width="65" height="71" filterUnits="userSpaceOnUse" color-interpolation-filters="sRGB">
<feFlood flood-opacity="0" result="BackgroundImageFix"/>
<feColorMatrix in="SourceAlpha" type="matrix" values="0 0 0 0 0 0 0 0 0 0 0 0 0 0 0 0 0 0 127 0" result="hardAlpha"/>
<feOffset dy="10"/>
<feGaussianBlur stdDeviation="2"/>
<feComposite in2="hardAlpha" operator="out"/>
<feColorMatrix type="matrix" values="0 0 0 0 0 0 0 0 0 0 0 0 0 0 0 0 0 0 0.25 0"/>
<feBlend mode="normal" in2="BackgroundImageFix" result="effect1_dropShadow_333_820"/>
<feBlend mode="normal" in="SourceGraphic" in2="effect1_dropShadow_333_820" result="shape"/>
</filter>
<clipPath id="clip0_333_820">
<rect width="57" height="57" fill="white" transform="translate(4)"/>
</clipPath>
</defs>
</svg>
