<svg width="205" height="75" viewBox="0 0 205 75" fill="none" xmlns="http://www.w3.org/2000/svg">
<path d="M32.2596 1.20117H172.65C189.997 1.20117 204.036 17.3769 204.036 37.3647C204.036 57.3524 189.997 73.5281 172.65 73.5281H32.2596C14.912 73.5281 0.873047 57.3524 0.873047 37.3647C0.873047 17.4284 14.912 1.20117 32.2596 1.20117Z" stroke="white"/>
<path d="M52.6902 36.6432L37.444 20.21C37.3099 20.6221 37.1758 21.0342 37.1758 21.6009V51.8401C37.1758 52.4068 37.3099 52.8189 37.444 53.231L52.6902 36.6432Z" fill="white"/>
<path d="M54.4785 36.6442L59.5755 42.1048L65.1642 38.7048C66.9527 37.623 66.9527 35.8199 65.1642 34.7381L59.4413 31.1836L54.4785 36.6442Z" fill="white"/>
<path d="M53.586 35.6641L58.2806 30.4611L40.3518 19.5399C39.5917 19.1278 38.8317 18.9732 38.3398 19.2823L53.586 35.6641Z" fill="white"/>
<path d="M53.586 37.5703L38.3398 54.1066C38.8317 54.3642 39.5917 54.2612 40.4859 53.849L58.5041 42.9279L53.586 37.5703Z" fill="white"/>
<path d="M77.8184 21.3438C76.79 21.3438 75.8958 21.7559 75.1805 22.5801C74.4651 23.4043 74.1074 24.4346 74.1074 25.671C74.1074 26.9074 74.4651 27.9377 75.1805 28.7619C75.8958 29.5861 76.79 29.9983 77.8184 29.9983C79.2491 29.9983 80.4563 29.1225 81.0822 27.7831V25.4134H77.7737V26.5983H79.9197V27.5255C79.4279 28.4013 78.7573 28.8134 77.8184 28.8134C77.0583 28.8134 76.4324 28.5043 75.9405 27.9377C75.4487 27.3195 75.2252 26.5983 75.2252 25.671C75.2252 24.7952 75.4487 24.0225 75.9405 23.4559C76.3876 22.8892 77.0136 22.5801 77.7737 22.5801C78.6679 22.5801 79.3385 23.0437 79.875 23.9195L80.6798 23.0953C80.0539 21.9619 79.0703 21.3438 77.8184 21.3438Z" fill="white"/>
<path d="M82.5137 21.4971V29.894H87.253V28.7092H83.6314V26.0304H86.2693V24.8455H83.6314V22.6819H87.1188V21.4971H82.5137Z" fill="white"/>
<path d="M87.834 21.4971V22.6819H90.2036V29.894H91.3214V22.6819H93.691V21.4971H87.834Z" fill="white"/>
<path d="M97.2227 21.4971V29.894H98.3404V21.4971H97.2227Z" fill="white"/>
<path d="M99.4141 21.4971V22.6819H101.784V29.894H102.901V22.6819H105.271V21.4971H99.4141Z" fill="white"/>
<path d="M112.021 21.3438C110.993 21.3438 110.099 21.7559 109.384 22.5801C108.668 23.4043 108.311 24.4346 108.311 25.671C108.311 26.9074 108.668 27.9377 109.384 28.7619C110.099 29.5861 110.948 29.9983 112.021 29.9983C113.095 29.9983 113.899 29.5861 114.615 28.7619C115.33 27.9377 115.688 26.9074 115.688 25.671C115.688 24.4346 115.33 23.4043 114.615 22.5801C113.944 21.7559 113.05 21.3438 112.021 21.3438ZM112.021 22.5801C112.737 22.5801 113.363 22.8892 113.81 23.4559C114.302 24.0225 114.525 24.7952 114.525 25.671C114.525 26.5983 114.302 27.3195 113.81 27.8861C113.318 28.4528 112.737 28.7619 112.021 28.7619C111.306 28.7619 110.68 28.4528 110.233 27.8861C109.741 27.268 109.518 26.5468 109.518 25.671C109.518 24.7952 109.741 24.0225 110.233 23.4559C110.725 22.8892 111.306 22.5801 112.021 22.5801Z" fill="white"/>
<path d="M121.724 27.1649L117.477 21.3438H117.074V29.8952H118.192V24.2286L122.484 30.0498H122.887V21.4983H121.769V27.1649H121.724Z" fill="white"/>
<path d="M80.5904 36.1279C78.7573 36.1279 77.2371 36.8491 75.9852 38.3431C74.7334 39.7855 74.1074 41.5885 74.1074 43.7521C74.1074 45.9158 74.7334 47.7188 75.9852 49.1612C77.2371 50.6036 78.7573 51.3248 80.5904 51.3248C83.0495 51.3248 85.2403 49.7794 86.3133 47.4612V43.34H80.5457V45.4521H84.3461V47.0491C83.4966 48.543 82.2894 49.2642 80.6798 49.2642C79.3385 49.2642 78.2655 48.7491 77.416 47.7188C76.5665 46.6885 76.1641 45.3491 76.1641 43.7521C76.1641 42.1552 76.5665 40.9188 77.3713 39.8885C78.1761 38.8582 79.2491 38.3431 80.5457 38.3431C82.0658 38.3431 83.3177 39.1158 84.2119 40.6612L85.6427 39.2703C84.4802 37.1582 82.7812 36.1279 80.5904 36.1279Z" fill="white"/>
<path d="M91.9459 39.8887C90.6046 39.8887 89.4421 40.4553 88.5032 41.5371C87.5643 42.619 87.1172 44.0099 87.1172 45.6068C87.1172 47.2038 87.5643 48.5947 88.5032 49.6765C89.4421 50.7583 90.5599 51.325 91.9459 51.325C93.3319 51.325 94.4049 50.7583 95.3886 49.6765C96.3275 48.5432 96.8193 47.2038 96.8193 45.6068C96.8193 44.0099 96.3275 42.619 95.3886 41.5371C94.4497 40.4553 93.2872 39.8887 91.9459 39.8887ZM91.9906 42.0523C92.7954 42.0523 93.466 42.4129 94.0026 43.0826C94.5391 43.7523 94.8073 44.5765 94.8073 45.6068C94.8073 46.6371 94.5391 47.4614 94.0026 48.1311C93.466 48.8008 92.7954 49.1098 91.9906 49.1098C91.1858 49.1098 90.5152 48.8008 89.9786 48.1311C89.4421 47.4614 89.1739 46.5856 89.1739 45.6068C89.1739 44.5765 89.4421 43.7523 89.9786 43.0826C90.4704 42.3614 91.1411 42.0523 91.9906 42.0523Z" fill="white"/>
<path d="M102.364 39.8887C101.023 39.8887 99.8601 40.4553 98.9212 41.5371C97.9823 42.619 97.5352 44.0099 97.5352 45.6068C97.5352 47.2038 97.9823 48.5947 98.9212 49.6765C99.8601 50.7583 100.978 51.325 102.364 51.325C103.75 51.325 104.823 50.7583 105.807 49.6765C106.745 48.5432 107.237 47.2038 107.237 45.6068C107.237 44.0099 106.745 42.619 105.807 41.5371C104.868 40.4553 103.705 39.8887 102.364 39.8887ZM102.409 42.0523C103.213 42.0523 103.884 42.4129 104.421 43.0826C104.957 43.7523 105.225 44.5765 105.225 45.6068C105.225 46.6371 104.957 47.4614 104.421 48.1311C103.884 48.8008 103.213 49.1098 102.409 49.1098C101.604 49.1098 100.933 48.8008 100.397 48.1311C99.8601 47.4614 99.5918 46.5856 99.5918 45.6068C99.5918 44.5765 99.8601 43.7523 100.397 43.0826C100.888 42.3614 101.559 42.0523 102.409 42.0523Z" fill="white"/>
<path d="M115.733 41.6917C115.018 40.5069 113.945 39.8887 112.514 39.8887C111.218 39.8887 110.189 40.4038 109.34 41.4341C108.49 42.4644 108.088 43.7523 108.088 45.4008C108.088 47.0492 108.535 48.3371 109.34 49.3674C110.189 50.3977 111.218 50.9129 112.514 50.9129C113.811 50.9129 114.839 50.3977 115.599 49.3674V50.1401C115.599 52.2007 114.526 53.2825 112.872 53.2825C111.799 53.2825 110.726 52.7674 109.653 51.7371L108.58 53.3856C109.787 54.7765 111.262 55.4462 112.961 55.4462C115.733 55.4462 117.522 53.4886 117.522 50.0371V40.2493H115.733V41.6917ZM112.827 48.8007C112.022 48.8007 111.396 48.4917 110.815 47.8735C110.279 47.2038 110.01 46.3795 110.01 45.4008C110.01 44.422 110.279 43.5977 110.815 42.928C111.352 42.3099 112.022 42.0008 112.827 42.0008C114.347 42.0008 115.599 43.1341 115.599 45.3493C115.599 46.4826 115.331 47.3068 114.794 47.925C114.213 48.4917 113.587 48.8007 112.827 48.8007Z" fill="white"/>
<path d="M119.398 34.377V51.0678H121.366V34.377H119.398Z" fill="white"/>
<path d="M131.649 44.8844C131.649 43.442 131.247 42.2571 130.442 41.2784C129.637 40.2996 128.654 39.8359 127.447 39.8359C126.105 39.8359 124.987 40.4026 124.093 41.4844C123.199 42.5662 122.752 43.9571 122.752 45.5541C122.752 47.1511 123.199 48.542 124.138 49.6238C125.077 50.7056 126.239 51.2723 127.67 51.2723C129.101 51.2723 130.263 50.7056 131.336 49.5208L130.397 47.9238C129.593 48.7995 128.698 49.2117 127.715 49.2117C126.15 49.2117 124.987 48.1298 124.719 46.3268H131.515C131.605 45.8632 131.649 45.348 131.649 44.8844ZM127.357 41.8965C128.698 41.8965 129.682 42.9268 129.682 44.5753H124.719C125.032 42.9268 126.061 41.8965 127.357 41.8965Z" fill="white"/>
<path d="M137.371 36.3848V51.0665H139.338V45.3999H141.842C143.094 45.3999 144.078 44.9878 144.882 44.1635C145.642 43.3393 146.045 42.2059 146.045 40.8666C146.045 39.5272 145.642 38.4454 144.882 37.6211C144.122 36.7969 143.094 36.3848 141.842 36.3848H137.371ZM141.842 38.4454C143.228 38.4454 144.033 39.4241 144.033 40.8666C144.033 42.309 143.228 43.2878 141.842 43.2878H139.383V38.4454H141.842Z" fill="white"/>
<path d="M147.164 34.377V51.0678H149.131V34.377H147.164Z" fill="white"/>
<path d="M154.541 39.8887C152.887 39.8887 151.59 40.6614 150.696 42.2068L151.814 43.5977C152.574 42.5159 153.423 41.9493 154.362 41.9493C155.614 41.9493 156.329 42.7735 156.329 44.2674V44.9886H153.736C151.679 44.9886 150.383 46.225 150.383 48.1311C150.383 50.0371 151.635 51.2735 153.557 51.2735C154.809 51.2735 155.793 50.7583 156.463 49.7795V51.0159H158.297V44.422C158.297 41.5372 156.821 39.8887 154.541 39.8887ZM153.96 49.522C153.021 49.522 152.35 49.0068 152.35 48.0795C152.35 47.2038 152.887 46.7402 153.96 46.7402H156.285V46.9462C156.329 48.4401 155.256 49.522 153.96 49.522Z" fill="white"/>
<path d="M163.751 48.1313L161.113 40.1465H159.012L162.678 50.604L162.32 51.6343C161.873 52.8707 161.247 53.2313 160.308 53.2313C160.174 53.2313 159.817 53.2313 159.235 53.1282V55.0858C159.727 55.2404 160.264 55.2919 160.755 55.2919C162.32 55.2919 163.349 54.3646 164.109 52.304L168.58 40.1465H166.478L163.751 48.1313Z" fill="white"/>
</svg>
