<svg width="70" height="70" viewBox="0 0 70 70" fill="none" xmlns="http://www.w3.org/2000/svg">
<g clip-path="url(#clip0_333_748)">
<path d="M61.25 37.1875H52.5C51.3397 37.1875 50.2269 37.6484 49.4064 38.4689C48.5859 39.2894 48.125 40.4022 48.125 41.5625V52.5C48.125 53.6603 48.5859 54.7731 49.4064 55.5936C50.2269 56.4141 51.3397 56.875 52.5 56.875H56.875C58.0353 56.875 59.1481 56.4141 59.9686 55.5936C60.7891 54.7731 61.25 53.6603 61.25 52.5V37.1875ZM61.25 37.1875C61.25 33.7403 60.571 30.3269 59.2518 27.1421C57.9326 23.9573 55.9991 21.0635 53.5616 18.6259C51.124 16.1884 48.2302 14.2548 45.0454 12.9357C41.8606 11.6165 38.4472 10.9375 35 10.9375C31.5528 10.9375 28.1394 11.6165 24.9546 12.9357C21.7698 14.2548 18.876 16.1884 16.4384 18.6259C14.0009 21.0635 12.0673 23.9573 10.7482 27.1421C9.42898 30.3269 8.75 33.7403 8.75 37.1875M8.75 37.1875V52.5C8.75 53.6603 9.21094 54.7731 10.0314 55.5936C10.8519 56.4141 11.9647 56.875 13.125 56.875H17.5C18.6603 56.875 19.7731 56.4141 20.5936 55.5936C21.4141 54.7731 21.875 53.6603 21.875 52.5V41.5625C21.875 40.4022 21.4141 39.2894 20.5936 38.4689C19.7731 37.6484 18.6603 37.1875 17.5 37.1875H8.75Z" stroke="white" stroke-width="2" stroke-linecap="round" stroke-linejoin="round"/>
</g>
<defs>
<clipPath id="clip0_333_748">
<rect width="70" height="70" fill="white"/>
</clipPath>
</defs>
</svg>
