<svg width="18" height="18" viewBox="0 0 18 18" fill="none" xmlns="http://www.w3.org/2000/svg">
<path d="M5 0C2.239 0 0 2.11888 0 4.73175V12.3025C0 14.9154 2.239 17.0343 5 17.0343H13C15.761 17.0343 18 14.9154 18 12.3025V4.73175C18 2.11888 15.761 0 13 0H5ZM15 1.8927C15.552 1.8927 16 2.31666 16 2.83905C16 3.36143 15.552 3.7854 15 3.7854C14.448 3.7854 14 3.36143 14 2.83905C14 2.31666 14.448 1.8927 15 1.8927ZM9 3.7854C11.761 3.7854 14 5.90428 14 8.51715C14 11.13 11.761 13.2489 9 13.2489C6.239 13.2489 4 11.13 4 8.51715C4 5.90428 6.239 3.7854 9 3.7854ZM9 5.6781C8.20435 5.6781 7.44129 5.97721 6.87868 6.50964C6.31607 7.04206 6 7.76419 6 8.51715C6 9.27011 6.31607 9.99223 6.87868 10.5247C7.44129 11.0571 8.20435 11.3562 9 11.3562C9.79565 11.3562 10.5587 11.0571 11.1213 10.5247C11.6839 9.99223 12 9.27011 12 8.51715C12 7.76419 11.6839 7.04206 11.1213 6.50964C10.5587 5.97721 9.79565 5.6781 9 5.6781Z" fill="white"/>
</svg>
