<svg width="30" height="42" viewBox="0 0 30 42" fill="none" xmlns="http://www.w3.org/2000/svg">
<g clip-path="url(#clip0_125_918)">
<path d="M29.9371 13.2888V13.2537C29.9101 13.043 29.8876 12.8366 29.8607 12.6347C29.7168 11.6206 29.465 10.6372 29.1144 9.70211C29.038 9.50455 28.9705 9.31139 28.8851 9.12262C28.1793 7.42804 27.1497 5.89151 25.8685 4.58326C25.8235 4.53497 25.774 4.48229 25.7246 4.434C25.6751 4.38571 25.6257 4.33303 25.5762 4.28474C25.2885 4.00377 24.9873 3.73598 24.6771 3.48135C24.3174 3.17843 23.9398 2.89308 23.5442 2.62089C23.216 2.40139 22.8743 2.18627 22.5236 1.98433C22.5146 1.97994 22.5012 1.97116 22.4877 1.96677C22.0965 1.74287 21.6964 1.54093 21.2873 1.35655C21.085 1.26874 20.8872 1.18094 20.6849 1.09753C20.6759 1.09753 20.6714 1.09314 20.6624 1.09314C20.4871 1.0229 20.3072 0.952658 20.1274 0.891196C20.0914 0.878026 20.0555 0.864856 20.0195 0.856076C19.8577 0.799004 19.7003 0.746323 19.5385 0.698032C19.3317 0.623401 19.1204 0.57072 18.9136 0.509258C18.7967 0.482918 18.6798 0.452187 18.5629 0.425847C18.5045 0.412676 18.4505 0.399506 18.3966 0.386336C17.938 0.280974 17.4794 0.197562 17.0029 0.140491C16.841 0.11415 16.6747 0.0965898 16.5084 0.0834195C16.3735 0.0658591 16.2341 0.0526889 16.1037 0.0439087C16.0678 0.0439087 16.0408 0.0395186 16.0048 0.0395186C15.8385 0.0307384 15.6676 0.0219582 15.4968 0.0175681C15.1596 0.00439786 14.8269 0.00439786 14.4943 0.0175681C14.3234 0.0219582 14.1571 0.0307384 13.9907 0.0395186C13.8199 0.0526889 13.6536 0.0658591 13.4827 0.0834195C13.3209 0.0965898 13.1545 0.11415 12.9882 0.140491C12.5206 0.201952 12.0531 0.280974 11.599 0.386336C11.5406 0.399506 11.4866 0.412676 11.4327 0.425847C11.3158 0.452187 11.1989 0.482918 11.082 0.509258C10.8662 0.566329 10.6594 0.627791 10.4571 0.698032C10.2953 0.741933 10.1379 0.794614 9.97606 0.856076C9.93559 0.864856 9.89963 0.878026 9.86816 0.891196C9.69283 0.952658 9.5085 1.02729 9.33766 1.09314C9.32418 1.09314 9.31968 1.09314 9.31069 1.09753C9.10838 1.18094 8.90607 1.26874 8.70826 1.35655C8.29465 1.53654 7.89004 1.74287 7.49891 1.96238C7.49891 1.96238 7.49891 1.96238 7.50341 1.96677C4.64412 3.5911 2.37827 6.10223 1.11048 9.11823V9.1314C1.03405 9.31578 0.966615 9.50455 0.890187 9.69772C0.548512 10.624 0.301247 11.603 0.152888 12.6127C0.152888 12.6435 0.148392 12.6786 0.139401 12.7093C0.112426 12.9069 0.080956 13.1 0.0629731 13.2932C0.0449902 13.5347 0.0270073 13.7717 0.0180158 14.0088C3.29036e-05 14.3951 3.29036e-05 14.7771 0.0135201 15.1502C0.0539817 16.2916 0.224819 17.3979 0.517042 18.4603C0.575486 18.6623 0.633931 18.873 0.701367 19.0706C0.701367 19.0706 0.710358 19.1013 0.714854 19.1145C0.773298 19.3032 0.84523 19.4876 0.912666 19.6764C1.14644 20.3173 1.42967 20.9364 1.75786 21.5378L1.99164 21.9461L7.50341 31.5911L12.7005 40.683C12.7634 40.7927 12.8308 40.8937 12.9028 40.9903C12.9387 41.043 12.9747 41.0869 13.0197 41.1308C13.0556 41.1747 13.1006 41.2142 13.1455 41.2581C14.1616 42.2459 15.8475 42.2459 16.8635 41.2581C17.0343 41.0913 17.1872 40.8981 17.3131 40.6786L22.5057 31.5955L28.0129 21.9417L28.2467 21.5334C28.3141 21.4149 28.3771 21.2919 28.44 21.169C28.4985 21.0461 28.5614 20.9232 28.6198 20.8003C28.7188 20.5851 28.8177 20.3744 28.9076 20.1549C28.9705 19.9969 29.0335 19.8432 29.0919 19.6808C29.2448 19.2857 29.3751 18.8774 29.4875 18.4691C29.9326 16.8404 30.1034 15.1019 29.9416 13.2976L29.9371 13.2888ZM9.04994 2.98088V2.97649C9.07691 2.99844 9.10388 3.02039 9.13086 3.04234C9.10388 3.02478 9.08141 3.00283 9.04994 2.98527V2.98088ZM13.4827 21.0812C13.4063 21.2305 13.3299 21.3841 13.2489 21.5334L13.0152 21.9373L13.2489 21.529C13.3299 21.3798 13.4108 21.2305 13.4872 21.0768L13.4827 21.0812ZM12.7679 6.97147C12.8129 7.04171 12.8533 7.10757 12.8893 7.17781C12.8443 7.10318 12.7994 7.03293 12.7544 6.9583C12.7589 6.9583 12.7679 6.96708 12.7679 6.97147ZM12.1115 6.0276L11.2978 5.03544C11.5855 5.35592 11.8553 5.68518 12.1115 6.0276ZM10.1829 28.6805C10.2413 28.6146 10.3042 28.5575 10.3672 28.5005L10.1829 28.6805ZM19.3362 22.2885C19.2418 22.3324 19.1428 22.3807 19.0484 22.429C19.1473 22.3807 19.2418 22.3324 19.3362 22.2885C19.6733 22.1305 20.0015 21.9724 20.3162 21.8231C20.0015 21.9724 19.6733 22.1261 19.3362 22.2885ZM21.8493 21.112C21.7369 21.1646 21.6245 21.2173 21.5121 21.27C21.3997 21.3227 21.2783 21.3754 21.1659 21.4324C21.0266 21.4983 20.8917 21.5597 20.7523 21.6256C20.8917 21.5597 21.0311 21.4939 21.1659 21.428C21.2783 21.371 21.3997 21.3227 21.5121 21.27C21.6245 21.2173 21.7369 21.1646 21.8493 21.112C21.9032 21.0856 21.9617 21.0549 22.0156 21.0329C21.9617 21.0637 21.9077 21.09 21.8493 21.1163V21.112ZM24.0297 19.9574C23.9308 20.0144 23.8364 20.0759 23.733 20.133C23.8319 20.0759 23.9308 20.0144 24.0297 19.953C24.0612 19.9354 24.0926 19.9135 24.1241 19.8959C24.0926 19.9179 24.0612 19.9398 24.0297 19.9574ZM25.5538 18.8247C25.4504 18.9125 25.347 19.0047 25.2346 19.0925C25.3425 19.0047 25.4504 18.9125 25.5538 18.8203C25.5717 18.8028 25.5942 18.7852 25.6122 18.7633L25.5538 18.8203V18.8247Z" fill="#16D5C7"/>
</g>
<defs>
<clipPath id="clip0_125_918">
<rect width="30" height="42" fill="white"/>
</clipPath>
</defs>
</svg>
